<svg width="24" height="24" viewBox="0 0 24 24" fill="none" xmlns="http://www.w3.org/2000/svg">
<g clip-path="url(#clip0_0_3194)">
<rect width="23.9993" height="24" fill="white"/>
<path d="M9.13237 7.10059L7.50305 6.15359L11.9349 3.5625L16.3798 6.15359L14.7504 7.10059L11.9349 5.46965L9.13237 7.10059ZM17.5399 8.73152V10.6387L19.1692 9.6917V7.78453L17.5399 6.82438L15.9105 7.77139L17.5399 8.73152ZM10.3055 7.78453L11.9349 8.73152L13.5642 7.78453L11.9349 6.82438L10.3055 7.78453ZM16.3798 9.41545L14.7504 8.46846L11.9349 10.0994L9.13237 8.46846L7.50305 9.41545V11.3226L10.3055 12.9535V16.2154L11.9349 17.1624L13.5642 16.2154V12.9535L16.3798 11.3226V9.41545ZM17.5399 15.2684L14.7374 16.8994V18.8065L19.1823 16.2154V11.0464L17.5399 12.0066V15.2684ZM14.7374 15.5446L16.3667 14.5977V12.6773L14.7374 13.6243V15.5446ZM10.3055 17.5833V19.4905L11.9349 20.4375L13.5642 19.4905V17.5833L11.9349 18.5303L10.3055 17.5833ZM4.6875 9.6917L6.31686 10.6387V8.73152L7.94622 7.78453L6.32989 6.82438L4.70054 7.77139V9.6917H4.6875ZM6.32989 12.0066L4.70054 11.0596V16.2286L9.14541 18.8197V16.9125L6.32989 15.2684V12.0066ZM9.13237 13.6375L7.50305 12.6905V14.5977L9.13237 15.5446V13.6375Z" fill="black"/>
</g>
<defs>
<clipPath id="clip0_0_3194">
<rect width="23.9993" height="24" rx="11.9997" fill="white"/>
</clipPath>
</defs>
</svg>
