<svg width="24" height="24" viewBox="0 0 24 24" fill="none" xmlns="http://www.w3.org/2000/svg">
<circle cx="12" cy="12" r="12" fill="black"/>
<g clip-path="url(#clip0_0_3200)">
<path d="M17.9382 15.1919L15.9572 17.2846C15.9142 17.33 15.8621 17.3663 15.8042 17.391C15.7463 17.4158 15.6838 17.4286 15.6207 17.4285H6.22998C6.18517 17.4285 6.14134 17.4156 6.10387 17.3914C6.0664 17.3672 6.03692 17.3328 6.01906 17.2923C6.0012 17.2518 5.99573 17.2071 6.00333 17.1636C6.01093 17.1201 6.03126 17.0797 6.06183 17.0475L8.04429 14.9548C8.08724 14.9095 8.13917 14.8733 8.19688 14.8486C8.2546 14.8238 8.31686 14.811 8.37981 14.8109H17.77C17.8148 14.8109 17.8587 14.8238 17.8962 14.848C17.9336 14.8722 17.9631 14.9066 17.981 14.9471C17.9988 14.9876 18.0043 15.0323 17.9967 15.0758C17.9891 15.1193 17.9688 15.1597 17.9382 15.1919ZM15.9572 10.978C15.9142 10.9325 15.8621 10.8963 15.8042 10.8715C15.7463 10.8467 15.6838 10.834 15.6207 10.834H6.22998C6.18517 10.834 6.14134 10.8469 6.10387 10.8711C6.0664 10.8953 6.03692 10.9297 6.01906 10.9702C6.0012 11.0107 5.99573 11.0554 6.00333 11.0989C6.01093 11.1424 6.03126 11.1828 6.06183 11.2151L8.04429 13.3077C8.08724 13.353 8.13917 13.3892 8.19688 13.414C8.2546 13.4387 8.31686 13.4516 8.37981 13.4517H17.77C17.8148 13.4517 17.8587 13.4388 17.8962 13.4146C17.9336 13.3904 17.9631 13.3559 17.981 13.3154C17.9988 13.275 18.0043 13.2302 17.9967 13.1867C17.9891 13.1432 17.9688 13.1029 17.9382 13.0706L15.9572 10.978ZM6.22998 9.47481H15.6207C15.6838 9.47483 15.7463 9.46207 15.8042 9.4373C15.8621 9.41253 15.9142 9.37629 15.9572 9.33083L17.9382 7.23819C17.9688 7.20592 17.9891 7.16556 17.9967 7.12206C18.0043 7.07857 17.9988 7.03383 17.981 6.99335C17.9631 6.95288 17.9336 6.91842 17.8962 6.89422C17.8587 6.87001 17.8148 6.85712 17.77 6.85712H8.37981C8.31686 6.85722 8.2546 6.87005 8.19688 6.89482C8.13917 6.91958 8.08724 6.95575 8.04429 7.00109L6.06234 9.09373C6.0318 9.12596 6.01148 9.16629 6.00386 9.20973C5.99625 9.25318 6.00167 9.29788 6.01947 9.33834C6.03727 9.3788 6.06666 9.41325 6.10406 9.43749C6.14145 9.46174 6.18521 9.4747 6.22998 9.47481Z" fill="url(#paint0_linear_0_3200)"/>
</g>
<defs>
<linearGradient id="paint0_linear_0_3200" x1="7.01294" y1="17.6805" x2="16.6944" y2="6.60046" gradientUnits="userSpaceOnUse">
<stop offset="0.08" stop-color="#9945FF"/>
<stop offset="0.3" stop-color="#8752F3"/>
<stop offset="0.5" stop-color="#5497D5"/>
<stop offset="0.6" stop-color="#43B4CA"/>
<stop offset="0.72" stop-color="#28E0B9"/>
<stop offset="0.97" stop-color="#19FB9B"/>
</linearGradient>
<clipPath id="clip0_0_3200">
<rect width="12" height="10.5714" fill="white" transform="translate(6 6.85712)"/>
</clipPath>
</defs>
</svg>
