<svg width="64" height="65" viewBox="0 0 64 65" fill="none" xmlns="http://www.w3.org/2000/svg">
<g clip-path="url(#clip0_0_2764)">
<rect y="0.738281" width="63.9981" height="64" rx="12" fill="#0052FF"/>
<path fill-rule="evenodd" clip-rule="evenodd" d="M9.49951 32.7383C9.49951 45.1647 19.5728 55.2383 31.9989 55.2383C44.4249 55.2383 54.4982 45.1647 54.4982 32.7383C54.4982 20.3118 44.4249 10.2383 31.9989 10.2383C19.5728 10.2383 9.49951 20.3118 9.49951 32.7383ZM26.249 25.4883C25.4206 25.4883 24.7491 26.1598 24.7491 26.9883V38.4883C24.7491 39.3167 25.4206 39.9883 26.249 39.9883H37.7487C38.5771 39.9883 39.2486 39.3167 39.2486 38.4883V26.9883C39.2486 26.1598 38.5771 25.4883 37.7487 25.4883H26.249Z" fill="white"/>
</g>
<defs>
<clipPath id="clip0_0_2764">
<rect y="0.738281" width="63.9981" height="64" rx="4" fill="white"/>
</clipPath>
</defs>
</svg>
