<svg width="168" height="32" viewBox="0 0 168 32" fill="none" xmlns="http://www.w3.org/2000/svg">
<path d="M54.208 24H48.2383V8.48485H54.1474C55.7433 8.48485 57.1221 8.79546 58.2837 9.41667C59.4504 10.0328 60.3494 10.9217 60.9807 12.0833C61.6171 13.2399 61.9353 14.6263 61.9353 16.2424C61.9353 17.8586 61.6196 19.2475 60.9883 20.4091C60.357 21.5657 59.463 22.4545 58.3065 23.0758C57.1499 23.6919 55.7837 24 54.208 24ZM52.4504 20.4242H54.0565C54.8241 20.4242 55.4782 20.3005 56.0186 20.053C56.564 19.8056 56.9782 19.3788 57.261 18.7727C57.5489 18.1667 57.6928 17.3232 57.6928 16.2424C57.6928 15.1616 57.5464 14.3182 57.2534 13.7121C56.9656 13.1061 56.5413 12.6793 55.9807 12.4318C55.4251 12.1843 54.7433 12.0606 53.9353 12.0606H52.4504V20.4242ZM63.8841 24V8.48485H75.0659V11.8788H68.0962V14.5455H74.4902V17.9394H68.0962V20.6061H75.0356V24H63.8841ZM77.1549 24V8.48485H88.064V11.8788H81.3671V14.5455H87.3974V17.9394H81.3671V24H77.1549ZM93.8254 8.48485V24H89.6133V8.48485H93.8254Z" fill="#DDFF1F"/>
<path d="M104.185 13.3333C104.145 12.8283 103.955 12.4343 103.617 12.1515C103.284 11.8687 102.776 11.7273 102.094 11.7273C101.66 11.7273 101.304 11.7803 101.026 11.8864C100.753 11.9874 100.551 12.1263 100.42 12.303C100.289 12.4798 100.221 12.6818 100.216 12.9091C100.205 13.096 100.238 13.2652 100.314 13.4167C100.395 13.5631 100.521 13.697 100.693 13.8182C100.865 13.9343 101.084 14.0404 101.352 14.1364C101.62 14.2323 101.938 14.3182 102.306 14.3939L103.579 14.6667C104.438 14.8485 105.173 15.0884 105.784 15.3864C106.395 15.6843 106.895 16.0354 107.284 16.4394C107.673 16.8384 107.958 17.2879 108.14 17.7879C108.327 18.2879 108.423 18.8333 108.428 19.4242C108.423 20.4444 108.168 21.3081 107.663 22.0152C107.157 22.7222 106.435 23.2601 105.496 23.6288C104.562 23.9975 103.438 24.1818 102.125 24.1818C100.776 24.1818 99.5994 23.9823 98.5943 23.5833C97.5943 23.1843 96.8166 22.5707 96.261 21.7424C95.7105 20.9091 95.4327 19.8434 95.4277 18.5455H99.4277C99.4529 19.0202 99.5716 19.4192 99.7837 19.7424C99.9959 20.0657 100.294 20.3106 100.678 20.4773C101.067 20.6439 101.529 20.7273 102.064 20.7273C102.514 20.7273 102.89 20.6717 103.193 20.5606C103.496 20.4495 103.726 20.2955 103.882 20.0985C104.039 19.9015 104.12 19.6768 104.125 19.4242C104.12 19.1869 104.041 18.9798 103.89 18.803C103.743 18.6212 103.501 18.4596 103.163 18.3182C102.824 18.1717 102.367 18.0354 101.791 17.9091L100.246 17.5758C98.8721 17.2778 97.7888 16.7803 96.9959 16.0833C96.208 15.3813 95.8166 14.4242 95.8216 13.2121C95.8166 12.2273 96.0792 11.3662 96.6095 10.6288C97.1448 9.88636 97.8847 9.30808 98.8292 8.89394C99.7787 8.4798 100.867 8.27273 102.094 8.27273C103.347 8.27273 104.43 8.48232 105.344 8.90152C106.258 9.32071 106.963 9.91162 107.458 10.6742C107.958 11.4318 108.211 12.3182 108.216 13.3333H104.185ZM109.606 11.8788V8.48485H123.091V11.8788H118.424V24H114.272V11.8788H109.606ZM126.748 24H122.202L127.324 8.48485H133.081L138.202 24H133.657L130.263 12.7576H130.142L126.748 24ZM125.899 17.8788H134.445V21.0303H125.899V17.8788ZM139.697 24V8.48485H146.394C147.545 8.48485 148.553 8.69444 149.416 9.11364C150.28 9.53283 150.952 10.1364 151.431 10.9242C151.911 11.7121 152.151 12.6566 152.151 13.7576C152.151 14.8687 151.904 15.8056 151.409 16.5682C150.919 17.3308 150.229 17.9066 149.341 18.2955C148.457 18.6843 147.424 18.8788 146.242 18.8788H142.242V15.6061H145.394C145.889 15.6061 146.31 15.5455 146.659 15.4242C147.012 15.298 147.282 15.0985 147.469 14.8258C147.661 14.553 147.757 14.197 147.757 13.7576C147.757 13.3131 147.661 12.952 147.469 12.6742C147.282 12.3914 147.012 12.1843 146.659 12.053C146.31 11.9167 145.889 11.8485 145.394 11.8485H143.909V24H139.697ZM148.788 16.8788L152.666 24H148.091L144.303 16.8788H148.788ZM162.31 13.3333C162.27 12.8283 162.08 12.4343 161.742 12.1515C161.409 11.8687 160.901 11.7273 160.219 11.7273C159.785 11.7273 159.429 11.7803 159.151 11.8864C158.878 11.9874 158.676 12.1263 158.545 12.303C158.414 12.4798 158.346 12.6818 158.341 12.9091C158.33 13.096 158.363 13.2652 158.439 13.4167C158.52 13.5631 158.646 13.697 158.818 13.8182C158.99 13.9343 159.209 14.0404 159.477 14.1364C159.745 14.2323 160.063 14.3182 160.431 14.3939L161.704 14.6667C162.563 14.8485 163.298 15.0884 163.909 15.3864C164.52 15.6843 165.02 16.0354 165.409 16.4394C165.798 16.8384 166.083 17.2879 166.265 17.7879C166.452 18.2879 166.548 18.8333 166.553 19.4242C166.548 20.4444 166.293 21.3081 165.788 22.0152C165.282 22.7222 164.56 23.2601 163.621 23.6288C162.687 23.9975 161.563 24.1818 160.25 24.1818C158.901 24.1818 157.724 23.9823 156.719 23.5833C155.719 23.1843 154.942 22.5707 154.386 21.7424C153.835 20.9091 153.558 19.8434 153.553 18.5455H157.553C157.578 19.0202 157.697 19.4192 157.909 19.7424C158.121 20.0657 158.419 20.3106 158.803 20.4773C159.192 20.6439 159.654 20.7273 160.189 20.7273C160.639 20.7273 161.015 20.6717 161.318 20.5606C161.621 20.4495 161.851 20.2955 162.007 20.0985C162.164 19.9015 162.245 19.6768 162.25 19.4242C162.245 19.1869 162.166 18.9798 162.015 18.803C161.868 18.6212 161.626 18.4596 161.288 18.3182C160.949 18.1717 160.492 18.0354 159.916 17.9091L158.371 17.5758C156.997 17.2778 155.914 16.7803 155.121 16.0833C154.333 15.3813 153.942 14.4242 153.947 13.2121C153.942 12.2273 154.204 11.3662 154.734 10.6288C155.27 9.88636 156.01 9.30808 156.954 8.89394C157.904 8.4798 158.992 8.27273 160.219 8.27273C161.472 8.27273 162.555 8.48232 163.469 8.90152C164.383 9.32071 165.088 9.91162 165.583 10.6742C166.083 11.4318 166.335 12.3182 166.341 13.3333H162.31Z" fill="white"/>
<path d="M30.3125 13.7957C31.5299 15.0131 31.5299 16.9869 30.3125 18.2043L18.2043 30.3125C16.9869 31.5299 15.0131 31.5299 13.7957 30.3125L1.68748 18.2043C0.470103 16.9869 0.470105 15.0131 1.68748 13.7957L13.7957 1.68748C15.0131 0.470105 16.9869 0.470105 18.2043 1.68748L30.3125 13.7957Z" stroke="white" stroke-width="1.5489"/>
<path d="M34.8867 13.7957C36.1041 15.0131 36.1041 16.9869 34.8867 18.2043L22.7785 30.3125C21.5611 31.5299 19.5873 31.5299 18.37 30.3125L6.2617 18.2043C5.04433 16.9869 5.04433 15.0131 6.2617 13.7957L18.37 1.68748C19.5873 0.470105 21.5611 0.470105 22.7785 1.68748L34.8867 13.7957Z" fill="white" stroke="white" stroke-width="1.5489"/>
<path d="M29.4485 15.6218C29.8822 15.6859 29.8822 16.3115 29.4485 16.3756L22.9859 17.3301C22.8198 17.3546 22.6893 17.4851 22.6647 17.6513L21.7102 24.1138C21.6461 24.5476 21.0205 24.5476 20.9565 24.1138L20.0019 17.6513C19.9774 17.4851 19.8469 17.3546 19.6807 17.3301L13.2182 16.3756C12.7845 16.3115 12.7845 15.6859 13.2182 15.6218L19.6807 14.6673C19.8469 14.6428 19.9774 14.5123 20.0019 14.3461L20.9565 7.88355C21.0205 7.44983 21.6461 7.44983 21.7102 7.88355L22.6647 14.3461C22.6893 14.5123 22.8198 14.6428 22.9859 14.6673L29.4485 15.6218Z" fill="black"/>
</svg>
