<svg width="64" height="65" viewBox="0 0 64 65" fill="none" xmlns="http://www.w3.org/2000/svg">
<g clip-path="url(#clip0_0_2761)">
<rect y="0.738281" width="63.9981" height="64" fill="white"/>
<path d="M50.0063 14.2383L34.3989 25.8304L37.2851 18.9912L50.0063 14.2383Z" fill="#E2761B" stroke="#E2761B" stroke-linecap="round" stroke-linejoin="round"/>
<path d="M13.9761 14.2383L29.458 25.9402L26.713 18.9912L13.9761 14.2383Z" fill="#E4761B" stroke="#E4761B" stroke-linecap="round" stroke-linejoin="round"/>
<path d="M44.3911 41.1089L40.2344 47.4775L49.1282 49.9246L51.685 41.2501L44.3911 41.1089Z" fill="#E4761B" stroke="#E4761B" stroke-linecap="round" stroke-linejoin="round"/>
<path d="M12.3291 41.2501L14.8702 49.9246L23.7641 47.4775L19.6073 41.1089L12.3291 41.2501Z" fill="#E4761B" stroke="#E4761B" stroke-linecap="round" stroke-linejoin="round"/>
<path d="M23.262 30.3481L20.7837 34.0971L29.6148 34.4893L29.3011 24.9991L23.262 30.3481Z" fill="#E4761B" stroke="#E4761B" stroke-linecap="round" stroke-linejoin="round"/>
<path d="M40.7203 30.3481L34.6028 24.8893L34.3989 34.4893L43.2144 34.0971L40.7203 30.3481Z" fill="#E4761B" stroke="#E4761B" stroke-linecap="round" stroke-linejoin="round"/>
<path d="M23.7642 47.4775L29.066 44.8893L24.4857 41.3128L23.7642 47.4775Z" fill="#E4761B" stroke="#E4761B" stroke-linecap="round" stroke-linejoin="round"/>
<path d="M34.9165 44.8893L40.234 47.4775L39.4968 41.3128L34.9165 44.8893Z" fill="#E4761B" stroke="#E4761B" stroke-linecap="round" stroke-linejoin="round"/>
<path d="M40.234 47.4775L34.9165 44.8893L35.34 48.3559L35.293 49.8148L40.234 47.4775Z" fill="#D7C1B3" stroke="#D7C1B3" stroke-linecap="round" stroke-linejoin="round"/>
<path d="M23.7637 47.4775L28.7047 49.8148L28.6733 48.356L29.0655 44.8893L23.7637 47.4775Z" fill="#D7C1B3" stroke="#D7C1B3" stroke-linecap="round" stroke-linejoin="round"/>
<path d="M28.7833 39.0226L24.3599 37.7207L27.4813 36.2932L28.7833 39.0226Z" fill="#233447" stroke="#233447" stroke-linecap="round" stroke-linejoin="round"/>
<path d="M35.1987 39.0226L36.5007 36.2932L39.6378 37.7207L35.1987 39.0226Z" fill="#233447" stroke="#233447" stroke-linecap="round" stroke-linejoin="round"/>
<path d="M23.7637 47.4775L24.5166 41.1089L19.6069 41.2501L23.7637 47.4775Z" fill="#CD6116" stroke="#CD6116" stroke-linecap="round" stroke-linejoin="round"/>
<path d="M39.481 41.1089L40.2339 47.4775L44.3906 41.2501L39.481 41.1089Z" fill="#CD6116" stroke="#CD6116" stroke-linecap="round" stroke-linejoin="round"/>
<path d="M43.2139 34.0971L34.3984 34.4893L35.2141 39.0226L36.516 36.2932L39.6532 37.7206L43.2139 34.0971Z" fill="#CD6116" stroke="#CD6116" stroke-linecap="round" stroke-linejoin="round"/>
<path d="M24.3596 37.7206L27.4967 36.2932L28.783 39.0226L29.6143 34.4893L20.7832 34.0971L24.3596 37.7206Z" fill="#CD6116" stroke="#CD6116" stroke-linecap="round" stroke-linejoin="round"/>
<path d="M20.7837 34.0971L24.4855 41.3128L24.3601 37.7206L20.7837 34.0971Z" fill="#E4751F" stroke="#E4751F" stroke-linecap="round" stroke-linejoin="round"/>
<path d="M39.6539 37.7206L39.4971 41.3128L43.2146 34.0971L39.6539 37.7206Z" fill="#E4751F" stroke="#E4751F" stroke-linecap="round" stroke-linejoin="round"/>
<path d="M29.6146 34.4893L28.7832 39.0226L29.8185 44.3716L30.0538 37.3285L29.6146 34.4893Z" fill="#E4751F" stroke="#E4751F" stroke-linecap="round" stroke-linejoin="round"/>
<path d="M34.3991 34.4893L33.9756 37.3128L34.1638 44.3716L35.2148 39.0226L34.3991 34.4893Z" fill="#E4751F" stroke="#E4751F" stroke-linecap="round" stroke-linejoin="round"/>
<path d="M35.2145 39.0226L34.1636 44.3716L34.9165 44.8893L39.4968 41.3128L39.6536 37.7206L35.2145 39.0226Z" fill="#F6851B" stroke="#F6851B" stroke-linecap="round" stroke-linejoin="round"/>
<path d="M24.3599 37.7206L24.4854 41.3128L29.0656 44.8893L29.8185 44.3716L28.7833 39.0226L24.3599 37.7206Z" fill="#F6851B" stroke="#F6851B" stroke-linecap="round" stroke-linejoin="round"/>
<path d="M35.2927 49.8147L35.3398 48.3559L34.9477 48.0108H29.0341L28.6733 48.3559L28.7047 49.8147L23.7637 47.4775L25.4891 48.8892L28.9871 51.3206H34.9947L38.5083 48.8892L40.2338 47.4775L35.2927 49.8147Z" fill="#C0AD9E" stroke="#C0AD9E" stroke-linecap="round" stroke-linejoin="round"/>
<path d="M34.9163 44.8892L34.1634 44.3716H29.8184L29.0655 44.8892L28.6733 48.3559L29.0341 48.0108H34.9477L35.3398 48.3559L34.9163 44.8892Z" fill="#161616" stroke="#161616" stroke-linecap="round" stroke-linejoin="round"/>
<path d="M50.6651 26.5834L51.9984 20.1834L50.0063 14.2383L34.9165 25.4383L40.7203 30.3481L48.9239 32.7481L50.7435 30.6304L49.9592 30.0657L51.2141 28.9206L50.2416 28.1677L51.4964 27.2108L50.6651 26.5834Z" fill="#763D16" stroke="#763D16" stroke-linecap="round" stroke-linejoin="round"/>
<path d="M11.9995 20.1834L13.3328 26.5834L12.4858 27.2108L13.7406 28.1677L12.7838 28.9206L14.0387 30.0657L13.2544 30.6304L15.0582 32.7481L23.2619 30.3481L29.0657 25.4383L13.9759 14.2383L11.9995 20.1834Z" fill="#763D16" stroke="#763D16" stroke-linecap="round" stroke-linejoin="round"/>
<path d="M48.9238 32.7481L40.7201 30.3481L43.2141 34.0971L39.4966 41.3128L44.3906 41.25H51.6845L48.9238 32.7481Z" fill="#F6851B" stroke="#F6851B" stroke-linecap="round" stroke-linejoin="round"/>
<path d="M23.2621 30.3481L15.0584 32.7481L12.3291 41.25H19.6073L24.4856 41.3128L20.7838 34.0971L23.2621 30.3481Z" fill="#F6851B" stroke="#F6851B" stroke-linecap="round" stroke-linejoin="round"/>
<path d="M34.3989 34.4893L34.9166 25.4383L37.3008 18.9912H26.7129L29.0658 25.4383L29.6148 34.4893L29.803 37.3442L29.8187 44.3716H34.1637L34.195 37.3442L34.3989 34.4893Z" fill="#F6851B" stroke="#F6851B" stroke-linecap="round" stroke-linejoin="round"/>
</g>
<defs>
<clipPath id="clip0_0_2761">
<rect y="0.738281" width="63.9981" height="64" rx="16" fill="white"/>
</clipPath>
</defs>
</svg>
