<svg width="64" height="64" viewBox="0 0 64 64" fill="none" xmlns="http://www.w3.org/2000/svg">
<g clip-path="url(#clip0_0_2770)">
<rect width="63.9981" height="64" fill="url(#paint0_linear_0_2770)"/>
<path d="M55.2906 32.4571H49.5698C49.5698 20.8826 40.0855 11.5 28.3856 11.5C16.8303 11.5 7.43578 20.6528 7.20589 32.0291C6.96799 43.7885 18.1202 54 30.0086 54H31.504C41.9851 54 56.0331 45.8833 58.228 35.9937C58.6335 34.1706 57.1775 32.4571 55.2906 32.4571ZM19.8841 32.9727C19.8841 34.5205 18.6044 35.7864 17.0398 35.7864C15.4752 35.7864 14.1956 34.5199 14.1956 32.9727V28.4207C14.1956 26.8729 15.4752 25.607 17.0398 25.607C18.6044 25.607 19.8841 26.8729 19.8841 28.4207V32.9727ZM29.7605 32.9727C29.7605 34.5205 28.4809 35.7864 26.9163 35.7864C25.3517 35.7864 24.072 34.5199 24.072 32.9727V28.4207C24.072 26.8729 25.3523 25.607 26.9163 25.607C28.4809 25.607 29.7605 26.8729 29.7605 28.4207V32.9727Z" fill="url(#paint1_linear_0_2770)"/>
</g>
<defs>
<linearGradient id="paint0_linear_0_2770" x1="31.9991" y1="0" x2="31.9991" y2="64" gradientUnits="userSpaceOnUse">
<stop stop-color="#534BB1"/>
<stop offset="1" stop-color="#551BF9"/>
</linearGradient>
<linearGradient id="paint1_linear_0_2770" x1="32.7491" y1="11.5" x2="32.7491" y2="54" gradientUnits="userSpaceOnUse">
<stop stop-color="white"/>
<stop offset="1" stop-color="white" stop-opacity="0.82"/>
</linearGradient>
<clipPath id="clip0_0_2770">
<rect width="63.9981" height="64" rx="16" fill="white"/>
</clipPath>
</defs>
</svg>
